<!-- Copyright 2000-2021 JetBrains s.r.o. Use of this source code is governed by the Apache 2.0 license that can be found in the LICENSE file. -->
<svg width="16" height="16" viewBox="0 0 16 16" fill="none" xmlns="http://www.w3.org/2000/svg">
    <defs id="colors">
        <linearGradient id="menuIconEnabled" fallback="Label.foreground">
            <stop offset="0" stop-color="#AFB1B3"/>
            <stop offset="1" stop-color="#AFB1B3"/>
        </linearGradient>
    </defs>
   <g fill="url(#menuIconEnabled)">
       <path d="M 1 1 L 1 4 L 4 4 L 4 1 L 1 1 z M 2 2 L 3 2 L 3 3 L 2 3 L 2 2 z " />
       <path d="m 1,12 v 3 h 3 v -3 z m 1,1 h 1 v 1 H 2 Z" />
       <path d="m 12,12 v 3 h 3 v -3 z m 1,1 h 1 v 1 h -1 z" />
       <path d="m 7,1 v 3 h 3 V 1 Z M 8,2 H 9 V 3 H 8 Z" />
       <path d="m 12,6 v 3 h 3 V 6 Z m 1,1 h 1 v 1 h -1 z" />
       <rect width="1" height="8" x="2" y="4" />
       <rect width="8" height="1" x="4" y="13" />
       <rect width="1" height="3" x="13" y="9" />
       <rect width="3" height="1" x="4" y="2" />
       <rect width="4.2426419" height="1.4142135" x="9.1923885" y="-4.9497476" transform="rotate(45)" />
   </g>
</svg>
