<?xml version="1.0" encoding="UTF-8" standalone="no"?>
<!-- Created with Inkscape (http://www.inkscape.org/) -->

<svg
   width="16.0px"
   height="16.0px"
   viewBox="0 0 16.0 16.0"
   version="1.1"
   id="SVGRoot"
   sodipodi:docname="box.svg"
   inkscape:version="1.1.1 (3bf5ae0d25, 2021-09-20)"
   xmlns:inkscape="http://www.inkscape.org/namespaces/inkscape"
   xmlns:sodipodi="http://sodipodi.sourceforge.net/DTD/sodipodi-0.dtd"
   xmlns="http://www.w3.org/2000/svg"
   xmlns:svg="http://www.w3.org/2000/svg">
  <sodipodi:namedview
     id="namedview14"
     pagecolor="#505050"
     bordercolor="#eeeeee"
     borderopacity="1"
     inkscape:pageshadow="0"
     inkscape:pageopacity="0"
     inkscape:pagecheckerboard="0"
     inkscape:document-units="px"
     showgrid="true"
     inkscape:zoom="32"
     inkscape:cx="10.859375"
     inkscape:cy="6.421875"
     inkscape:window-width="1920"
     inkscape:window-height="1017"
     inkscape:window-x="-8"
     inkscape:window-y="-8"
     inkscape:window-maximized="1"
     inkscape:current-layer="layer1">
    <inkscape:grid
       type="xygrid"
       id="grid20" />
  </sodipodi:namedview>
  <defs
     id="defs9" />
  <g
     inkscape:label="Warstwa 1"
     inkscape:groupmode="layer"
     id="layer1">
    <path
       id="rect2057"
       style="fill:#ffffff;fill-opacity:1;stroke:none;stroke-width:0"
       d="M 1 1 L 1 4 L 4 4 L 4 1 L 1 1 z M 2 2 L 3 2 L 3 3 L 2 3 L 2 2 z " />
    <path
       id="rect2057-9"
       style="fill:#ffffff;fill-opacity:1;stroke:none;stroke-width:0"
       d="m 1,12 v 3 h 3 v -3 z m 1,1 h 1 v 1 H 2 Z" />
    <path
       id="rect2057-0"
       style="fill:#ffffff;fill-opacity:1;stroke:none;stroke-width:0"
       d="m 12,12 v 3 h 3 v -3 z m 1,1 h 1 v 1 h -1 z" />
    <path
       id="rect2057-02"
       style="fill:#ffffff;fill-opacity:1;stroke:none;stroke-width:0"
       d="m 12,1 v 3 h 3 V 1 Z m 1,1 h 1 v 1 h -1 z" />
    <path
       style="fill:none;stroke:none;stroke-width:1px;stroke-linecap:butt;stroke-linejoin:miter;stroke-opacity:1"
       d="M 15,1 V 6 L 10,1 Z"
       id="path2409" />
    <rect
       style="fill:#ffffff;fill-opacity:1;stroke:none;stroke-width:0"
       id="rect2826"
       width="1"
       height="8"
       x="2"
       y="4" />
    <rect
       style="fill:#ffffff;fill-opacity:1;stroke:none;stroke-width:0"
       id="rect2828"
       width="8"
       height="1"
       x="4"
       y="13" />
    <rect
       style="fill:#ffffff;fill-opacity:1;stroke:none;stroke-width:0"
       id="rect2830"
       width="1"
       height="8"
       x="13"
       y="4" />
    <rect
       style="fill:#ffffff;fill-opacity:1;stroke:none;stroke-width:0"
       id="rect2832"
       width="8"
       height="1"
       x="4"
       y="2" />
  </g>
</svg>
