<?xml version="1.0" encoding="UTF-8" standalone="no"?>
<!-- Created with Inkscape (http://www.inkscape.org/) -->

<svg
   width="16.0px"
   height="16.0px"
   viewBox="0 0 16.0 16.0"
   version="1.1"
   id="SVGRoot"
   sodipodi:docname="shape.svg"
   inkscape:version="1.1.1 (3bf5ae0d25, 2021-09-20)"
   xmlns:inkscape="http://www.inkscape.org/namespaces/inkscape"
   xmlns:sodipodi="http://sodipodi.sourceforge.net/DTD/sodipodi-0.dtd"
   xmlns="http://www.w3.org/2000/svg"
   xmlns:svg="http://www.w3.org/2000/svg">
  <sodipodi:namedview
     id="namedview14"
     pagecolor="#505050"
     bordercolor="#eeeeee"
     borderopacity="1"
     inkscape:pageshadow="0"
     inkscape:pageopacity="0"
     inkscape:pagecheckerboard="0"
     inkscape:document-units="px"
     showgrid="true"
     inkscape:zoom="2"
     inkscape:cx="102.75"
     inkscape:cy="-56.25"
     inkscape:window-width="1920"
     inkscape:window-height="1017"
     inkscape:window-x="-8"
     inkscape:window-y="-8"
     inkscape:window-maximized="1"
     inkscape:current-layer="layer1">
    <inkscape:grid
       type="xygrid"
       id="grid20" />
  </sodipodi:namedview>
  <defs
     id="defs9" />
  <g
     inkscape:label="Warstwa 1"
     inkscape:groupmode="layer"
     id="layer1">
    <path
       id="rect2057"
       style="fill:#ffffff;fill-opacity:1;stroke:none;stroke-width:0"
       d="M 4,1 V 4 H 7 V 1 Z M 5,2 H 6 V 3 H 5 Z" />
    <path
       id="rect2057-02"
       style="fill:#ffffff;fill-opacity:1;stroke:none;stroke-width:0"
       d="m 9,1 v 3 h 3 V 1 Z m 1,1 h 1 v 1 h -1 z" />
    <path
       id="rect2057-02-9"
       style="fill:#ffffff;fill-opacity:1;stroke:none;stroke-width:0"
       d="m 12,6 v 3 h 3 V 6 Z m 1,1 h 1 v 1 h -1 z" />
    <path
       id="rect2057-02-9-1"
       style="fill:#ffffff;fill-opacity:1;stroke:none;stroke-width:0"
       d="M 1,6 V 9 H 4 V 6 Z M 2,7 H 3 V 8 H 2 Z" />
    <path
       style="fill:none;stroke:none;stroke-width:1px;stroke-linecap:butt;stroke-linejoin:miter;stroke-opacity:1"
       d="M 15,1 V 6 L 10,1 Z"
       id="path2409" />
    <rect
       style="fill:#ffffff;fill-opacity:1;stroke:none;stroke-width:0"
       id="rect2832"
       width="2"
       height="1"
       x="7"
       y="2" />
    <rect
       style="fill:#ffffff;fill-opacity:1;stroke:none;stroke-width:0"
       id="rect2832-0"
       width="3.964102"
       height="1.1339742"
       x="8.5980759"
       y="-8.8923044"
       transform="rotate(60)" />
    <rect
       style="fill:#ffffff;fill-opacity:1;stroke:none;stroke-width:0"
       id="rect2832-0-9"
       width="3.964102"
       height="1.1339742"
       x="0.59807575"
       y="4.9641023"
       transform="matrix(-0.5,0.8660254,0.8660254,0.5,0,0)" />
    <rect
       style="fill:#ffffff;fill-opacity:1;stroke:none;stroke-width:0"
       id="rect2832-0-8"
       width="3.964102"
       height="1.1339742"
       x="-4.7762799"
       y="-16.593267"
       transform="matrix(0.5,-0.8660254,-0.8660254,-0.5,0,0)" />
    <rect
       style="fill:#ffffff;fill-opacity:1;stroke:none;stroke-width:0"
       id="rect2832-0-9-9"
       width="3.964102"
       height="1.1339742"
       x="-12.75833"
       y="-2.7679491"
       transform="rotate(-120)" />
    <path
       id="rect2057-4"
       style="fill:#ffffff;fill-opacity:1;stroke:none;stroke-width:0"
       d="m 3.9820505,11.433013 v 3 h 3 v -3 z m 1,1 h 1 v 1 h -1 z" />
    <path
       id="rect2057-02-0"
       style="fill:#ffffff;fill-opacity:1;stroke:none;stroke-width:0"
       d="m 8.9820505,11.433013 v 3 H 11.98205 v -3 z m 1,1 H 10.98205 v 1 H 9.9820505 Z" />
    <rect
       style="fill:#ffffff;fill-opacity:1;stroke:none;stroke-width:0"
       id="rect2832-6"
       width="2"
       height="1"
       x="6.9820504"
       y="12.433013" />
  </g>
</svg>
