<svg xmlns="http://www.w3.org/2000/svg" width="17" height="16" viewBox="0 0 17 16">
  <defs id="colors">
    <linearGradient id="menuIconEnabled" fallback="Label.foreground">
      <stop offset="0" stop-color="#AFB1B3"/>
      <stop offset="1" stop-color="#AFB1B3"/>
    </linearGradient>
  </defs>
  <path fill="url(#menuIconEnabled)" fill-opacity="1.0" fill-rule="evenodd" d="M2,3 L4,3 L4,5 L2,5 L2,3 Z M2,7 L4,7 L4,9 L2,9 L2,7 Z M2,11 L4,11 L4,13 L2,13 L2,11 Z M6,3 L15,3 L15,5 L6,5 L6,3 Z M6,7 L15,7 L15,9 L6,9 L6,7 Z M6,11 L15,11 L15,13 L6,13 L6,11 Z"/>
</svg>
